<?xml version="1.0" standalone="no"?>
<!DOCTYPE svg PUBLIC "-//W3C//DTD SVG 20010904//EN"
 "http://www.w3.org/TR/2001/REC-SVG-20010904/DTD/svg10.dtd">
<svg version="1.0" xmlns="http://www.w3.org/2000/svg"
 width="1024.000000pt" height="657.000000pt" viewBox="0 0 1024.000000 657.000000"
 preserveAspectRatio="xMidYMid meet">

<g transform="translate(0.000000,657.000000) scale(0.100000,-0.100000)"
fill="#000000" stroke="none">
<path d="M1170 6556 c0 -2 13 -6 29 -8 17 -2 28 -1 25 4 -5 8 -54 12 -54 4z"/>
<path d="M1130 6496 c0 -14 4 -27 8 -30 5 -3 6 8 4 25 -5 35 -12 38 -12 5z"/>
<path d="M1229 6453 c-7 -10 -9 -15 -4 -10 4 4 18 -1 29 -10 21 -18 21 -18 3
3 -9 11 -14 24 -10 27 3 4 4 7 1 7 -3 0 -12 -8 -19 -17z"/>
<path d="M75 6401 c-75 -33 -96 -133 -40 -191 l30 -31 12 38 c6 21 12 53 12
71 1 46 31 44 31 -2 0 -41 12 -52 34 -30 32 31 11 84 -32 84 -37 0 -52 -17
-52 -59 -1 -34 -1 -35 -16 -16 -16 22 -12 61 10 83 7 7 29 15 48 19 30 4 41 1
62 -20 32 -32 33 -65 5 -102 -18 -22 -28 -26 -50 -21 -21 4 -29 2 -29 -8 0 -8
-3 -22 -7 -32 -6 -15 -1 -16 37 -11 30 4 53 15 74 36 45 45 45 117 0 162 -33
33 -92 46 -129 30z"/>
<path d="M1011 5930 c0 -29 1 -32 10 -17 7 11 7 23 0 35 -9 14 -10 11 -10 -18z"/>
<path d="M1042 5935 c-7 -15 -11 -30 -8 -32 7 -7 28 36 24 49 -2 6 -9 -2 -16
-17z"/>
<path d="M57 5887 c-47 -42 -47 -43 -47 -104 0 -76 9 -83 110 -83 101 0 110 7
110 84 l0 63 -49 41 c-27 23 -56 42 -63 42 -7 -1 -34 -20 -61 -43z m110 -13
c43 -36 44 -37 41 -93 -3 -49 -6 -56 -25 -59 -19 -3 -22 2 -25 34 -4 43 -28
65 -55 48 -11 -7 -19 -26 -21 -48 -3 -32 -6 -37 -25 -34 -19 3 -22 10 -25 58
-3 54 -3 56 40 92 24 21 45 38 47 38 2 0 24 -16 48 -36z m-29 -122 c3 -27 0
-32 -17 -32 -16 0 -21 6 -21 28 0 53 33 56 38 4z"/>
<path d="M75 5441 c-45 -20 -70 -60 -70 -112 0 -42 5 -53 33 -81 28 -28 39
-33 82 -33 43 0 54 5 82 33 28 28 33 39 33 82 0 42 -5 54 -31 81 -33 33 -92
46 -129 30z m94 -25 c67 -35 65 -143 -4 -174 -51 -23 -107 -7 -131 39 -47 91
44 182 135 135z"/>
<path d="M102 5380 c-24 -10 -42 -46 -42 -87 0 -24 2 -25 43 -19 53 9 64 20
73 74 6 41 6 42 -22 41 -16 0 -39 -4 -52 -9z m53 -42 c-9 -40 -3 -34 -42 -43
-35 -7 -39 -2 -27 42 6 21 20 29 57 32 16 1 18 -4 12 -31z"/>
<path d="M104 5339 c-10 -17 13 -36 27 -22 12 12 4 33 -11 33 -5 0 -12 -5 -16
-11z"/>
<path d="M22 4948 c-16 -16 -16 -180 0 -196 7 -7 44 -12 98 -12 54 0 91 5 98
12 16 16 16 180 0 196 -16 16 -180 16 -196 0z m183 -98 l0 -85 -85 0 -85 0 -3
74 c-2 41 -1 80 2 88 4 11 25 13 88 11 l83 -3 0 -85z"/>
<path d="M110 4885 c0 -20 -5 -25 -25 -25 -14 0 -25 -4 -25 -10 0 -5 11 -10
25 -10 20 0 25 -5 25 -25 0 -14 5 -25 10 -25 6 0 10 11 10 25 0 20 5 25 25 25
14 0 25 5 25 10 0 6 -11 10 -25 10 -20 0 -25 5 -25 25 0 14 -4 25 -10 25 -5 0
-10 -11 -10 -25z"/>
<path d="M925 4870 l-39 -40 41 -42 c47 -47 73 -45 28 2 l-29 30 97 0 c58 0
97 4 97 10 0 6 -39 10 -97 10 l-97 0 27 28 c15 15 27 31 27 35 0 16 -18 5 -55
-33z"/>
<path d="M122 4473 c-19 -7 -42 -58 -42 -93 0 -17 -9 -39 -20 -50 -27 -27 -26
-30 18 -30 26 0 41 -6 50 -20 7 -11 21 -20 32 -20 11 0 25 9 32 20 9 14 24 20
50 20 44 0 45 3 18 30 -11 11 -20 33 -20 50 0 37 -23 85 -45 94 -19 7 -54 7
-73 -1z m78 -33 c11 -11 20 -32 20 -47 0 -16 3 -38 6 -50 6 -22 4 -23 -66 -23
-70 0 -72 1 -66 23 3 12 6 34 6 50 0 32 31 67 60 67 11 0 29 -9 40 -20z m-20
-150 c0 -5 -9 -10 -20 -10 -11 0 -20 5 -20 10 0 6 9 10 20 10 11 0 20 -4 20
-10z"/>
<path d="M81 3969 c-26 -26 -31 -38 -31 -79 0 -41 5 -53 31 -80 30 -30 34 -31
108 -28 l76 3 3 76 c3 74 2 78 -28 108 -27 26 -39 31 -80 31 -41 0 -53 -5 -79
-31z m115 6 c42 -17 69 -70 55 -108 -6 -14 -7 -35 -4 -48 5 -19 3 -21 -16 -16
-13 3 -34 2 -48 -4 -38 -14 -91 13 -108 56 -14 31 -14 39 -1 70 10 23 27 41
48 50 41 18 33 18 74 0z"/>
<path d="M100 3890 c0 -5 5 -10 10 -10 6 0 10 5 10 10 0 6 -4 10 -10 10 -5 0
-10 -4 -10 -10z"/>
<path d="M150 3890 c0 -5 5 -10 10 -10 6 0 10 5 10 10 0 6 -4 10 -10 10 -5 0
-10 -4 -10 -10z"/>
<path d="M200 3890 c0 -5 5 -10 10 -10 6 0 10 5 10 10 0 6 -4 10 -10 10 -5 0
-10 -4 -10 -10z"/>
<path d="M80 3510 c-6 -11 -16 -18 -21 -14 -6 3 -19 -2 -29 -11 -26 -23 -26
-127 0 -150 10 -9 23 -14 29 -11 5 4 15 -3 21 -14 7 -13 21 -20 40 -20 19 0
33 7 40 20 6 11 16 18 21 14 6 -3 19 2 29 11 26 23 26 127 0 150 -10 9 -23 14
-29 11 -5 -4 -15 3 -21 14 -7 13 -21 20 -40 20 -19 0 -33 -7 -40 -20z m70 -20
c8 -15 17 -19 31 -15 20 7 21 6 24 -60 3 -60 -3 -77 -25 -70 -13 4 -22 -1 -30
-15 -6 -11 -19 -20 -30 -20 -11 0 -24 9 -30 20 -8 14 -17 19 -30 15 -22 -7
-28 10 -25 70 3 66 4 67 24 60 14 -4 23 0 31 15 6 11 19 20 30 20 11 0 24 -9
30 -20z"/>
<path d="M86 3444 c-30 -30 -9 -84 33 -84 22 0 51 30 51 53 0 21 -27 47 -50
47 -10 0 -26 -7 -34 -16z m59 -34 c0 -18 -6 -26 -23 -28 -13 -2 -25 3 -28 12
-10 26 4 48 28 44 17 -2 23 -10 23 -28z"/>
</g>
</svg>
